<svg xmlns="http://www.w3.org/2000/svg" viewBox="0 0 1200 630" role="img" aria-labelledby="title desc">
  <title id="title">Joshua Kivaria logo</title>
  <desc id="desc">A navy JK monogram paired with Joshua Kivaria wordmark for website branding.</desc>
  <rect width="1200" height="630" fill="#f6f3ee" />
  <rect x="95" y="95" width="1010" height="440" rx="36" fill="#ffffff" />
  <g transform="translate(165 120) scale(1.45)" fill="#18365a">
    <!-- Match the reusable browser/favicon mark so social previews reflect the live site branding. -->
    <path d="M92 36 120 8v96l-28 28Z" />
    <path d="M0 132h36c2 39 24 58 56 58 8 0 16-1 24-4v38c-10 4-21 6-33 6-53 0-84-31-83-98Z" />
    <path d="M101 173 199 8h57L158 173l-42 52h-57Z" />
    <path d="M166 180h41l49 76h-42Z" />
    <path d="M92 210h28v46H92Z" />
  </g>
  <text x="610" y="285" font-family="Arial, sans-serif" font-size="68" font-weight="700" letter-spacing="10" fill="#18365a">JOSHUA</text>
  <text x="610" y="375" font-family="Arial, sans-serif" font-size="68" font-weight="700" letter-spacing="10" fill="#18365a">KIVARIA</text>
  <text x="610" y="445" font-family="Arial, sans-serif" font-size="24" letter-spacing="8" fill="#6a7689">DATA ANALYST · SUPPORT SPECIALIST · DEVELOPER</text>
</svg>
